<svg id="visual" viewBox="0 0 900 600" width="900" height="600" xmlns="http://www.w3.org/2000/svg" xmlns:xlink="http://www.w3.org/1999/xlink" version="1.1"><g stroke-width="1" stroke-linejoin="bevel"><path d="M480 317L508 217L411 295Z" fill="#e9e9e9" stroke="#e9e9e9"></path><path d="M508 217L391 185L411 295Z" fill="#dfdfdf" stroke="#dfdfdf"></path><path d="M480 317L592 239L508 217Z" fill="#e3e3e3" stroke="#e3e3e3"></path><path d="M508 217L466 116L391 185Z" fill="#dddddd" stroke="#dddddd"></path><path d="M391 185L330 307L411 295Z" fill="#e7e7e7" stroke="#e7e7e7"></path><path d="M363 389L514 412L480 317Z" fill="#e7e7e7" stroke="#e7e7e7"></path><path d="M613 62L466 116L508 217Z" fill="#e0e0e0" stroke="#e0e0e0"></path><path d="M363 389L480 317L411 295Z" fill="#ececec" stroke="#ececec"></path><path d="M480 317L565 385L592 239Z" fill="#ececec" stroke="#ececec"></path><path d="M330 307L363 389L411 295Z" fill="#e3e3e3" stroke="#e3e3e3"></path><path d="M514 412L565 385L480 317Z" fill="#dddddd" stroke="#dddddd"></path><path d="M466 116L426 97L391 185Z" fill="#eaeaea" stroke="#eaeaea"></path><path d="M391 185L290 161L330 307Z" fill="#e2e2e2" stroke="#e2e2e2"></path><path d="M565 385L631 267L592 239Z" fill="#ececec" stroke="#ececec"></path><path d="M592 239L613 62L508 217Z" fill="#dddddd" stroke="#dddddd"></path><path d="M426 97L290 161L391 185Z" fill="#ececec" stroke="#ececec"></path><path d="M382 514L519 469L514 412Z" fill="#e3e3e3" stroke="#e3e3e3"></path><path d="M514 412L519 469L565 385Z" fill="#e3e3e3" stroke="#e3e3e3"></path><path d="M738 299L679 226L631 267Z" fill="#e9e9e9" stroke="#e9e9e9"></path><path d="M738 299L631 267L737 384Z" fill="#e3e3e3" stroke="#e3e3e3"></path><path d="M631 267L679 226L592 239Z" fill="#eeeeee" stroke="#eeeeee"></path><path d="M330 307L284 411L363 389Z" fill="#dddddd" stroke="#dddddd"></path><path d="M363 389L382 514L514 412Z" fill="#e0e0e0" stroke="#e0e0e0"></path><path d="M193 308L284 411L330 307Z" fill="#e5e5e5" stroke="#e5e5e5"></path><path d="M426 97L273 118L290 161Z" fill="#eaeaea" stroke="#eaeaea"></path><path d="M290 161L206 188L330 307Z" fill="#eeeeee" stroke="#eeeeee"></path><path d="M688 120L613 62L592 239Z" fill="#e2e2e2" stroke="#e2e2e2"></path><path d="M466 116L508 0L426 97Z" fill="#dddddd" stroke="#dddddd"></path><path d="M426 97L365 0L273 118Z" fill="#e9e9e9" stroke="#e9e9e9"></path><path d="M613 62L508 0L466 116Z" fill="#e2e2e2" stroke="#e2e2e2"></path><path d="M273 118L206 188L290 161Z" fill="#e3e3e3" stroke="#e3e3e3"></path><path d="M679 226L688 120L592 239Z" fill="#e9e9e9" stroke="#e9e9e9"></path><path d="M284 411L336 493L363 389Z" fill="#e3e3e3" stroke="#e3e3e3"></path><path d="M336 493L382 514L363 389Z" fill="#e5e5e5" stroke="#e5e5e5"></path><path d="M206 188L193 308L330 307Z" fill="#e3e3e3" stroke="#e3e3e3"></path><path d="M284 411L162 527L336 493Z" fill="#dfdfdf" stroke="#dfdfdf"></path><path d="M508 0L365 0L426 97Z" fill="#eaeaea" stroke="#eaeaea"></path><path d="M273 118L165 102L206 188Z" fill="#eeeeee" stroke="#eeeeee"></path><path d="M737 384L631 267L565 385Z" fill="#e5e5e5" stroke="#e5e5e5"></path><path d="M679 226L789 179L688 120Z" fill="#e7e7e7" stroke="#e7e7e7"></path><path d="M193 308L213 404L284 411Z" fill="#dfdfdf" stroke="#dfdfdf"></path><path d="M481 600L588 528L519 469Z" fill="#ececec" stroke="#ececec"></path><path d="M519 469L588 528L565 385Z" fill="#ececec" stroke="#ececec"></path><path d="M733 490L737 384L565 385Z" fill="#e9e9e9" stroke="#e9e9e9"></path><path d="M722 0L623 0L613 62Z" fill="#e5e5e5" stroke="#e5e5e5"></path><path d="M613 62L623 0L508 0Z" fill="#eeeeee" stroke="#eeeeee"></path><path d="M365 0L269 0L273 118Z" fill="#e0e0e0" stroke="#e0e0e0"></path><path d="M269 0L165 102L273 118Z" fill="#dddddd" stroke="#dddddd"></path><path d="M62 231L76 337L193 308Z" fill="#e7e7e7" stroke="#e7e7e7"></path><path d="M836 308L789 179L738 299Z" fill="#dddddd" stroke="#dddddd"></path><path d="M738 299L789 179L679 226Z" fill="#e2e2e2" stroke="#e2e2e2"></path><path d="M688 120L722 0L613 62Z" fill="#eaeaea" stroke="#eaeaea"></path><path d="M382 514L481 600L519 469Z" fill="#e0e0e0" stroke="#e0e0e0"></path><path d="M367 600L481 600L382 514Z" fill="#eeeeee" stroke="#eeeeee"></path><path d="M367 600L382 514L336 493Z" fill="#ececec" stroke="#ececec"></path><path d="M263 600L367 600L336 493Z" fill="#dfdfdf" stroke="#dfdfdf"></path><path d="M193 308L133 400L213 404Z" fill="#eaeaea" stroke="#eaeaea"></path><path d="M162 527L263 600L336 493Z" fill="#e2e2e2" stroke="#e2e2e2"></path><path d="M76 337L133 400L193 308Z" fill="#e2e2e2" stroke="#e2e2e2"></path><path d="M588 528L733 490L565 385Z" fill="#dfdfdf" stroke="#dfdfdf"></path><path d="M737 384L836 308L738 299Z" fill="#dddddd" stroke="#dddddd"></path><path d="M687 600L733 490L588 528Z" fill="#e2e2e2" stroke="#e2e2e2"></path><path d="M839 102L722 0L688 120Z" fill="#dfdfdf" stroke="#dfdfdf"></path><path d="M808 415L836 308L737 384Z" fill="#e5e5e5" stroke="#e5e5e5"></path><path d="M481 600L628 600L588 528Z" fill="#eeeeee" stroke="#eeeeee"></path><path d="M812 490L808 415L733 490Z" fill="#e5e5e5" stroke="#e5e5e5"></path><path d="M733 490L808 415L737 384Z" fill="#e9e9e9" stroke="#e9e9e9"></path><path d="M269 0L175 0L165 102Z" fill="#e0e0e0" stroke="#e0e0e0"></path><path d="M62 231L193 308L206 188Z" fill="#e5e5e5" stroke="#e5e5e5"></path><path d="M62 231L206 188L165 102Z" fill="#dddddd" stroke="#dddddd"></path><path d="M162 527L284 411L213 404Z" fill="#eaeaea" stroke="#eaeaea"></path><path d="M162 527L213 404L133 400Z" fill="#dfdfdf" stroke="#dfdfdf"></path><path d="M66 109L62 231L165 102Z" fill="#e2e2e2" stroke="#e2e2e2"></path><path d="M92 468L162 527L133 400Z" fill="#dddddd" stroke="#dddddd"></path><path d="M789 179L839 102L688 120Z" fill="#eaeaea" stroke="#eaeaea"></path><path d="M900 161L839 102L789 179Z" fill="#ececec" stroke="#ececec"></path><path d="M628 600L687 600L588 528Z" fill="#e0e0e0" stroke="#e0e0e0"></path><path d="M805 600L812 490L733 490Z" fill="#ececec" stroke="#ececec"></path><path d="M900 397L900 285L836 308Z" fill="#dfdfdf" stroke="#dfdfdf"></path><path d="M72 0L66 109L165 102Z" fill="#e7e7e7" stroke="#e7e7e7"></path><path d="M0 404L133 400L76 337Z" fill="#ececec" stroke="#ececec"></path><path d="M0 404L92 468L133 400Z" fill="#e3e3e3" stroke="#e3e3e3"></path><path d="M900 397L836 308L808 415Z" fill="#dddddd" stroke="#dddddd"></path><path d="M836 308L900 285L789 179Z" fill="#ececec" stroke="#ececec"></path><path d="M900 285L900 161L789 179Z" fill="#e5e5e5" stroke="#e5e5e5"></path><path d="M139 600L167 600L162 527Z" fill="#e2e2e2" stroke="#e2e2e2"></path><path d="M162 527L167 600L263 600Z" fill="#dfdfdf" stroke="#dfdfdf"></path><path d="M900 0L836 0L839 102Z" fill="#eeeeee" stroke="#eeeeee"></path><path d="M839 102L836 0L722 0Z" fill="#eeeeee" stroke="#eeeeee"></path><path d="M900 494L900 397L808 415Z" fill="#e5e5e5" stroke="#e5e5e5"></path><path d="M900 161L900 103L839 102Z" fill="#dfdfdf" stroke="#dfdfdf"></path><path d="M175 0L72 0L165 102Z" fill="#eeeeee" stroke="#eeeeee"></path><path d="M62 231L0 334L76 337Z" fill="#dfdfdf" stroke="#dfdfdf"></path><path d="M92 468L139 600L162 527Z" fill="#e9e9e9" stroke="#e9e9e9"></path><path d="M0 163L0 334L62 231Z" fill="#e7e7e7" stroke="#e7e7e7"></path><path d="M0 163L62 231L66 109Z" fill="#eaeaea" stroke="#eaeaea"></path><path d="M0 528L139 600L92 468Z" fill="#e5e5e5" stroke="#e5e5e5"></path><path d="M0 61L0 163L66 109Z" fill="#e3e3e3" stroke="#e3e3e3"></path><path d="M0 334L0 404L76 337Z" fill="#e3e3e3" stroke="#e3e3e3"></path><path d="M687 600L805 600L733 490Z" fill="#eeeeee" stroke="#eeeeee"></path><path d="M812 490L900 494L808 415Z" fill="#eeeeee" stroke="#eeeeee"></path><path d="M900 600L900 494L812 490Z" fill="#ececec" stroke="#ececec"></path><path d="M72 0L0 61L66 109Z" fill="#dfdfdf" stroke="#dfdfdf"></path><path d="M900 103L900 0L839 102Z" fill="#e0e0e0" stroke="#e0e0e0"></path><path d="M72 0L0 0L0 61Z" fill="#e7e7e7" stroke="#e7e7e7"></path><path d="M0 404L0 528L92 468Z" fill="#ececec" stroke="#ececec"></path><path d="M805 600L900 600L812 490Z" fill="#dddddd" stroke="#dddddd"></path><path d="M0 528L0 600L139 600Z" fill="#e7e7e7" stroke="#e7e7e7"></path></g></svg>